<?xml version="1.0" encoding="utf-8"?>
<!-- Generator: Adobe Illustrator 25.3.1, SVG Export Plug-In . SVG Version: 6.00 Build 0)  -->
<svg version="1.1" id="Layer_1" xmlns="http://www.w3.org/2000/svg" xmlns:xlink="http://www.w3.org/1999/xlink" x="0px" y="0px"
	 viewBox="0 0 1000 192" style="enable-background:new 0 0 1000 192;" xml:space="preserve">
<style type="text/css">
	.st0{fill:#39B54A;}
	.st1{fill:#111733;}
</style>
<g>
	<path class="st0" d="M923.97,143.58c-8.28,8.28-19.14,12.41-30.01,12.41c-10.86,0-21.72-4.13-30.01-12.41
		c-7.99-7.99-12.38-18.63-12.38-30.01c0-11.34,4.38-22.01,12.38-30.01l25.36-25.36c16.53-16.53,43.44-16.53,59.98,0
		c2.87,2.87,5.29,6.16,7.19,9.73l-13.38,13.38c-1.16-4.03-3.29-7.7-6.25-10.67c-9.7-9.7-25.46-9.7-35.13,0l-25.36,25.36
		c-4.67,4.67-7.25,10.89-7.25,17.56c0,6.67,2.58,12.89,7.25,17.56c9.7,9.7,25.46,9.7,35.13,0l7.03-7.03
		c5.7,1.93,12.12,3.06,18.95,3.06c0.93,0,1.84-0.06,2.74-0.1l0.1,0.06L923.97,143.58z M987.33,80.05l-25.46,25.46
		c-16.6,16.6-43.57,16.6-60.17,0c-2.9-2.9-5.29-6.19-7.22-9.77l13.44-13.44c1.16,4.03,3.29,7.74,6.25,10.7
		c9.73,9.73,25.53,9.73,35.26,0l25.46-25.46c4.67-4.67,7.25-10.93,7.25-17.63c0-6.67-2.58-12.96-7.25-17.63
		c-9.73-9.73-25.53-9.73-35.26,0l-7.03,7.03c-5.74-1.97-12.18-3.09-19.02-3.09c-0.93,0-1.84,0.06-2.77,0.1l-0.1-0.1l16.44-16.44
		c8.28-8.28,19.21-12.44,30.1-12.44c10.89,0,21.79,4.16,30.1,12.44c8.03,8.03,12.44,18.69,12.44,30.1
		C999.77,61.36,995.36,72.03,987.33,80.05z"/>
</g>
<g>
	<g>
		<path class="st1" d="M103.85,153.03H0.53v-6l1.84-0.1c7.81-0.52,12.44-1.63,13.89-3.34c1.45-1.71,2.18-6.92,2.18-15.64V34.81
			c0-8.73-0.73-13.94-2.18-15.61c-1.45-1.67-6.08-2.76-13.89-3.28l-1.84-0.19v-6h97.99v25.08H87.77l-0.19-1.84
			c-0.52-8.91-1.18-13.72-1.98-14.43c-0.81-0.71-5.99-1.06-15.54-1.06H38.78V74.8l26.24-0.1c5.81,0,9.38-0.31,10.7-0.92
			c1.32-0.61,2.11-3.66,2.37-9.15l0.1-1.74h7.75v31.47h-7.75l-0.1-1.73c-0.26-4.87-1.05-7.76-2.37-8.69
			c-1.32-0.93-4.89-1.39-10.7-1.39H38.78v45.41c0,7.49,0.89,12.15,2.66,13.99c1.77,1.84,6.37,2.76,13.8,2.76h15.3
			c11.36,0,17.83-0.56,19.41-1.69c1.58-1.13,2.6-5.96,3.05-14.48l0.1-1.74h10.75V153.03z"/>
		<path class="st1" d="M183.29,138.65c-11.37,11.2-22.61,16.8-33.72,16.8c-8.91,0-16.34-2.83-22.29-8.48s-8.91-12.75-8.91-21.29
			c0-9.96,3.87-18.04,11.62-24.24c8.84-7.11,23.82-10.67,44.93-10.67h3.97V77.7c0-16.59-6.29-24.88-18.88-24.88
			c-5.87,0-11.07,1.81-15.59,5.42c-2.65,2.2-4.33,6.68-5.04,13.46l-0.1,1.84h-12.97V54.27c13.43-5.87,25.88-8.81,37.38-8.81
			c22.85,0,34.28,10.5,34.28,31.5v46.91c0,8.4,0.73,14.31,2.18,17.74c1.45,3.42,3.98,5.14,7.6,5.14c1.29,0,3-0.29,5.13-0.88
			l0.58,7.18c-4.58,1.62-8.68,2.42-12.3,2.42C191.76,155.45,185.8,149.85,183.29,138.65z M178.89,136.48v-39.8h-4.45
			c-11.23,0-20.01,2.33-26.34,7c-6.33,4.67-9.49,11.08-9.49,19.25c0,6.09,1.97,11.15,5.91,15.17c3.94,4.02,8.84,6.03,14.72,6.03
			C164.78,144.12,171.33,141.58,178.89,136.48z"/>
		<path class="st1" d="M229.82,147.61v-26.72h10.75l0.19,1.85c0.84,9.65,1.47,15.11,1.89,16.37c0.42,1.26,2.11,2.87,5.08,4.81
			c5.81,3.76,12.3,5.64,19.46,5.64c5.81,0,10.57-1.76,14.28-5.29c3.71-3.53,5.57-8.08,5.57-13.65c0-4.92-1.23-8.84-3.68-11.76
			c-2.52-2.85-6.94-5.5-13.27-7.97l-9.78-3.78c-10.52-4.07-18.14-8.66-22.85-13.76c-4.71-5.04-7.07-11.18-7.07-18.41
			c0-8.53,3.4-15.57,10.21-21.13c6.81-5.56,15.48-8.33,26-8.33c10.26,0,20.88,2,31.86,6v25.08h-10.75V74.8
			c-0.39-6.33-0.9-10.7-1.55-13.12c-0.65-2.42-1.68-4.21-3.1-5.37c-4.2-3.29-9.26-4.94-15.2-4.94c-5.62,0-10.28,1.8-13.99,5.41
			c-3.71,3.61-5.57,8.15-5.57,13.63c0,4.51,1.52,8.12,4.55,10.83c2.97,2.77,8.97,6,18.01,9.67l8.91,3.68
			c9.75,4.01,16.56,8.14,20.43,12.41c3.81,4.33,5.71,9.88,5.71,16.67c0,9.37-3.73,17.01-11.18,22.92
			c-7.46,5.91-17.15,8.87-29.1,8.87C253.06,155.45,241.11,152.84,229.82,147.61z"/>
		<path class="st1" d="M332.36,191.28l34.52-38.25l-33.17-79.68c-3.49-8.52-6.07-13.83-7.75-15.93c-1.68-2.1-4.26-3.24-7.75-3.44
			l-1.94-0.1v-6h48.1v6h-2.03c-8.78,0-13.17,1.16-13.17,3.48c0,1.16,1.84,6.48,5.52,15.96l23.5,56.47l25.19-56.74
			c3.68-8.33,5.52-13.33,5.52-15.01c0-2.78-3.91-4.17-11.72-4.17h-2.61v-6h31.21v6l-1.84,0.1c-4,0.26-7.42,3.91-10.26,10.94
			c-0.52,1.23-1.75,4-3.7,8.33l-53.59,118.03H332.36z"/>
		<path class="st1" d="M533.27,153.03H429.76v-6l1.84-0.1c7.81-0.52,12.44-1.63,13.89-3.34c1.45-1.71,2.18-6.92,2.18-15.64V34.81
			c0-8.73-0.73-13.94-2.18-15.61c-1.45-1.67-6.08-2.76-13.89-3.28l-1.84-0.19v-6h56.16v6l-1.84,0.19
			c-7.88,0.51-12.52,1.61-13.94,3.28c-1.42,1.67-2.13,6.87-2.13,15.61v93.15c0,8.59,0.65,13.52,1.96,14.81
			c1.31,1.29,6.27,1.94,14.89,1.94h14.8c11.69,0,18.39-0.66,20.09-1.98c1.7-1.32,2.79-6.79,3.25-16.41l0.1-1.94h10.17V153.03z"/>
		<path class="st1" d="M576.65,47.88v80.08c0,8.78,0.71,14.01,2.12,15.69c1.41,1.68,6.07,2.78,13.96,3.29l1.83,0.1v6h-54.9v-6
			l1.84-0.1c7.81-0.52,12.44-1.63,13.89-3.34c1.45-1.71,2.18-6.92,2.18-15.64v-55c0-8.71-0.73-13.91-2.18-15.59
			c-1.45-1.68-6.08-2.81-13.89-3.39l-1.84-0.1v-6H576.65z M557.58,28.8V9.73h19.08V28.8H557.58z"/>
		<path class="st1" d="M637.55,67.55c4.84-7.36,10.42-12.88,16.75-16.56c6.33-3.68,13.39-5.52,21.21-5.52
			c9.04,0,16.14,2.97,21.3,8.92c5.1,5.95,7.65,14.12,7.65,24.53v49.05c0.45,9.62,1.19,15.04,2.23,16.27
			c1.03,1.23,5.68,2.13,13.94,2.71l1.74,0.1v6h-54.9v-6l1.74-0.1c8.26-0.58,12.91-1.48,13.94-2.71c1.03-1.23,1.77-6.65,2.23-16.27
			V81.9c0-9.05-1.18-15.33-3.53-18.86c-2.36-3.52-6.57-5.28-12.64-5.28c-4.26,0-9.04,1.34-14.33,4.02
			c-5.29,2.68-11.07,6.74-17.33,12.16v54.01c0,8.78,0.71,14.01,2.12,15.69c1.41,1.68,6.07,2.78,13.97,3.29l1.83,0.1v6h-54.9v-6
			l1.84-0.1c7.81-0.52,12.44-1.63,13.89-3.34c1.45-1.71,2.18-6.92,2.18-15.64v-55c0-8.71-0.73-13.91-2.18-15.59
			c-1.45-1.68-6.08-2.81-13.89-3.39l-1.84-0.1v-6h36.99V67.55z"/>
		<path class="st1" d="M762.94,101.33v26.63c0,8.65,0.66,13.86,1.99,15.64c1.32,1.78,5.24,2.89,11.76,3.34l1.84,0.1v6h-52.58v-6
			l1.84-0.1c7.81-0.52,12.44-1.63,13.89-3.34c1.45-1.71,2.18-6.92,2.18-15.64V25.22c0-8.71-0.73-13.93-2.18-15.64
			c-1.45-1.71-6.08-2.82-13.89-3.34l-1.84-0.1v-6h36.99v96.44h4.55l24.4-23.43c10.46-10.65,15.69-16.36,15.69-17.14
			c0-1.23-1.78-1.89-5.33-1.98c-3.55-0.1-6-0.15-7.36-0.15h-2.03v-6h40.98v6l-1.84,0.1c-6.84,0.46-11.22,1.28-13.12,2.48
			c-1.9,1.2-7.96,6.83-18.17,16.9l-18.41,18.09l31.56,37.09c8,9.03,13.02,14.28,15.06,15.73c2.03,1.45,5.57,2.34,10.6,2.66l1.84,0.1
			v6h-29.52l-44.35-51.71H762.94z"/>
	</g>
</g>
</svg>
