<svg version="1.2" xmlns="http://www.w3.org/2000/svg" viewBox="0 0 1000 192" width="1000" height="192"><style>.a{fill:#39b54a}.b{fill:#111733}</style><path class="a" d="m924 143.6c-8.3 8.3-19.2 12.4-30 12.4-10.9 0-21.8-4.1-30-12.4-8-8-12.4-18.6-12.4-30 0-11.4 4.4-22 12.4-30l25.3-25.4c16.5-16.5 43.5-16.5 60 0 2.9 2.9 5.3 6.2 7.2 9.7l-13.4 13.4c-1.2-4-3.3-7.7-6.2-10.7-9.7-9.7-25.5-9.7-35.2 0l-25.3 25.4c-4.7 4.7-7.3 10.9-7.3 17.6 0 6.6 2.6 12.9 7.3 17.5 9.7 9.7 25.4 9.7 35.1 0l7-7c5.7 1.9 12.1 3.1 19 3.1 0.9 0 1.8-0.1 2.7-0.1h0.1zm63.4-63.5l-25.5 25.4c-16.6 16.6-43.6 16.6-60.2 0-2.9-2.9-5.2-6.2-7.2-9.7l13.5-13.5c1.1 4.1 3.3 7.8 6.2 10.7 9.7 9.8 25.5 9.8 35.3 0l25.4-25.4c4.7-4.7 7.3-11 7.3-17.7 0-6.6-2.6-12.9-7.3-17.6-9.7-9.7-25.5-9.7-35.2 0l-7.1 7c-5.7-1.9-12.1-3-19-3-0.9 0-1.8 0-2.7 0.1l-0.1-0.1 16.4-16.5c8.3-8.3 19.2-12.4 30.1-12.4 10.9 0 21.8 4.1 30.1 12.4 8 8 12.4 18.7 12.4 30.1 0 11.5-4.4 22.2-12.4 30.2z"/><filter id="f0"><feFlood flood-color="#ffffff" flood-opacity="1" /><feBlend mode="normal" in2="SourceGraphic"/><feComposite in2="SourceAlpha" operator="in" /></filter><g filter="url(#f0)"><path class="b" d="m103.8 153h-103.3v-6l1.9-0.1q11.7-0.7 13.9-3.3 2.1-2.6 2.1-15.6v-93.2q0-13.1-2.1-15.6-2.2-2.5-13.9-3.3l-1.9-0.2v-6h98v25.1h-10.7l-0.2-1.8q-0.8-13.4-2-14.5-1.2-1-15.5-1h-31.3v57.3l26.2-0.1q8.7 0 10.7-0.9 2-0.9 2.4-9.2l0.1-1.7h7.7v31.5h-7.7l-0.1-1.8q-0.4-7.3-2.4-8.7-2-1.4-10.7-1.4h-26.2v45.5q0 11.2 2.6 13.9 2.7 2.8 13.8 2.8h15.3q17.1 0 19.4-1.7 2.4-1.7 3.1-14.5l0.1-1.7h10.7z"/><path fill-rule="evenodd" class="b" d="m183.3 138.7q-17.1 16.8-33.7 16.8-13.4-0.1-22.3-8.5-8.9-8.5-8.9-21.3 0-15 11.6-24.3 13.3-10.6 44.9-10.6h4v-13.1q0-24.9-18.9-24.9-8.8 0-15.6 5.4-4 3.3-5 13.5l-0.1 1.8h-13v-19.2q20.1-8.8 37.4-8.8 34.3 0 34.3 31.5v46.9q0 12.6 2.2 17.7 2.1 5.1 7.6 5.2 1.9 0 5.1-0.9l0.6 7.2q-6.9 2.4-12.3 2.4-14.1-0.1-17.9-16.8zm-4.4-2.2v-39.8h-4.5q-16.8 0-26.3 7-9.5 7-9.5 19.2 0 9.2 5.9 15.2 5.9 6 14.7 6 8.4 0 19.7-7.6z"/><path class="b" d="m229.8 147.6v-26.7h10.8l0.2 1.8q1.2 14.5 1.8 16.4 0.7 1.9 5.1 4.8 8.7 5.7 19.5 5.7 8.7 0 14.3-5.3 5.5-5.3 5.5-13.7 0-7.4-3.6-11.7-3.8-4.3-13.3-8l-9.8-3.8q-15.8-6.1-22.8-13.8-7.1-7.5-7.1-18.4 0-12.8 10.2-21.1 10.2-8.3 26-8.3 15.4 0 31.9 6v25.1h-10.8v-1.8q-0.6-9.5-1.5-13.1-1-3.6-3.1-5.4-6.3-4.9-15.2-4.9-8.5 0-14 5.4-5.6 5.4-5.6 13.6 0 6.8 4.6 10.8 4.4 4.2 18 9.7l8.9 3.7q14.6 6 20.4 12.4 5.7 6.5 5.7 16.7 0 14-11.2 22.9-11.2 8.9-29.1 8.9-18.8-0.1-35.8-7.9z"/><path class="b" d="m332.4 191.3l34.5-38.3-33.2-79.7q-5.2-12.7-7.7-15.9-2.6-3.1-7.8-3.4l-1.9-0.1v-6h48.1v6h-2.1q-13.1 0-13.1 3.5 0 1.7 5.5 15.9l23.5 56.5 25.2-56.8q5.5-12.4 5.5-15 0-4.1-11.7-4.1h-2.6v-6h31.2v6l-1.9 0.1q-6 0.4-10.2 10.9-0.8 1.8-3.7 8.3l-53.6 118.1h-24z"/><path class="b" d="m533.3 153h-103.5v-6l1.8-0.1q11.7-0.7 13.9-3.3 2.2-2.6 2.2-15.6v-93.2q0-13.1-2.2-15.6-2.2-2.5-13.9-3.3l-1.8-0.2v-6h56.1v6l-1.8 0.2q-11.8 0.8-14 3.3-2.1 2.5-2.1 15.6v93.2q0 12.8 2 14.8 1.9 1.9 14.9 1.9h14.8q17.5 0 20.1-2 2.5-2 3.2-16.4l0.1-1.9h10.2z"/><path class="b" d="m576.6 47.9v80.1q0.1 13.1 2.2 15.7 2.1 2.5 13.9 3.2l1.9 0.1v6h-54.9v-6l1.8-0.1q11.7-0.7 13.9-3.3 2.2-2.6 2.2-15.6v-55q0-13.1-2.2-15.6-2.2-2.6-13.9-3.4l-1.8-0.1v-6zm-19.1-19.1v-19.1h19.1v19.1z"/><path class="b" d="m637.5 67.5q7.3-11 16.8-16.5 9.5-5.5 21.2-5.5 13.6 0 21.3 8.9 7.7 8.9 7.7 24.5v49.1q0.6 14.4 2.2 16.2 1.5 1.9 13.9 2.8l1.8 0.1v6h-54.9v-6l1.7-0.1q12.4-0.9 14-2.8 1.5-1.8 2.2-16.2v-46.1q0-13.6-3.5-18.9-3.6-5.2-12.7-5.2-6.4 0-14.3 4-8 4-17.3 12.1v54q0 13.2 2.1 15.7 2.1 2.6 13.9 3.3l1.9 0.1v6h-54.9v-6l1.8-0.1q11.7-0.7 13.9-3.3 2.2-2.6 2.2-15.7v-55q0-13-2.2-15.5-2.2-2.6-13.9-3.4l-1.8-0.1v-6h37v19.6z"/><path class="b" d="m762.9 101.3v26.7q0 12.9 2 15.6 2 2.7 11.8 3.3l1.8 0.1v6h-52.5v-6l1.8-0.1q11.7-0.7 13.9-3.3 2.2-2.6 2.2-15.6v-102.8q0-13.1-2.2-15.6-2.2-2.6-13.9-3.4l-1.8-0.1v-6h36.9v96.5h4.6l24.4-23.4q15.7-16 15.7-17.2 0-1.8-5.3-2-5.4-0.1-7.4-0.1h-2v-6h40.9v6l-1.8 0.1q-10.3 0.7-13.1 2.5-2.9 1.8-18.2 16.9l-18.4 18.1 31.6 37q12 13.6 15 15.8 3.1 2.1 10.6 2.6l1.9 0.1v6h-29.6l-44.3-51.7h-4.6z"/></g></svg>